<svg id="visual" viewBox="0 0 900 600" width="900" height="600" xmlns="http://www.w3.org/2000/svg" xmlns:xlink="http://www.w3.org/1999/xlink" version="1.1"><rect x="0" y="0" width="900" height="600" fill="#ffffff"></rect><path d="M0 74L21.5 92.5C43 111 86 148 128.8 144.7C171.7 141.3 214.3 97.7 257.2 81.8C300 66 343 78 385.8 99C428.7 120 471.3 150 514.2 144.3C557 138.7 600 97.3 642.8 87C685.7 76.7 728.3 97.3 771.2 112.3C814 127.3 857 136.7 878.5 141.3L900 146L900 0L878.5 0C857 0 814 0 771.2 0C728.3 0 685.7 0 642.8 0C600 0 557 0 514.2 0C471.3 0 428.7 0 385.8 0C343 0 300 0 257.2 0C214.3 0 171.7 0 128.8 0C86 0 43 0 21.5 0L0 0Z" fill="#7a328c" stroke-linecap="round" stroke-linejoin="miter"></path></svg>