<svg id="visual" viewBox="0 0 960 540" width="960" height="540" xmlns="http://www.w3.org/2000/svg" xmlns:xlink="http://www.w3.org/1999/xlink" version="1.1"><path d="M0 66L22.8 82.7C45.7 99.3 91.3 132.7 137 129.8C182.7 127 228.3 88 274 73.8C319.7 59.7 365.3 70.3 411.2 89.2C457 108 503 135 548.8 129.8C594.7 124.7 640.3 87.3 686 78C731.7 68.7 777.3 87.3 823 101C868.7 114.7 914.3 123.3 937.2 127.7L960 132L960 0L937.2 0C914.3 0 868.7 0 823 0C777.3 0 731.7 0 686 0C640.3 0 594.7 0 548.8 0C503 0 457 0 411.2 0C365.3 0 319.7 0 274 0C228.3 0 182.7 0 137 0C91.3 0 45.7 0 22.8 0L0 0Z" fill="#7a328c" stroke-linecap="round" stroke-linejoin="miter"></path></svg>